<svg width="75" height="75" viewBox="0 0 75 75" fill="none" xmlns="http://www.w3.org/2000/svg">
<path d="M42.9492 31.2109C42.9492 28.5469 41.0117 27.0938 37.7422 27.0938H31.6875V35.6914H36.7734C40.7695 35.6914 42.9492 33.9961 42.9492 31.2109ZM65.2305 29.6367C64.0195 25.8828 63.8984 21.2812 64.0195 17.7695C64.1406 14.0156 61.2344 10.625 57.3594 10.625H17.5195C13.6445 10.625 10.7383 14.1367 10.9805 17.7695C11.1016 21.2812 10.8594 25.8828 9.76953 29.6367C8.55859 33.3906 6.62109 35.8125 3.47266 36.0547V39.5664C6.62109 39.8086 8.55859 42.2305 9.76953 45.9844C10.8594 49.7383 11.1016 54.3398 10.9805 57.8516C10.7383 61.4844 13.6445 64.875 17.5195 64.875H57.3594C61.2344 64.875 64.1406 61.4844 64.0195 57.8516C63.8984 54.3398 64.0195 49.7383 65.1094 45.9844C66.3203 42.2305 68.2578 39.8086 71.5273 39.5664V36.0547C68.2578 35.8125 66.3203 33.3906 65.2305 29.6367ZM38.9531 52.2812H27.0859V23.3398H38.832C44.1602 23.3398 47.5508 26.2461 47.5508 30.6055C47.5508 33.6328 45.25 36.418 42.2227 36.7812V37.0234C46.3398 37.3867 49.0039 40.1719 49.0039 44.0469C49.0039 49.1328 45.25 52.2812 38.9531 52.2812ZM37.7422 39.082H31.6875V48.5273H37.9844C42.1016 48.5273 44.2812 46.9531 44.2812 43.8047C44.2812 40.6562 42.1016 39.082 37.7422 39.082Z" fill="#8A13FC"/>
</svg>
