<svg width="48" height="48" viewBox="0 0 48 48" fill="none" xmlns="http://www.w3.org/2000/svg">
<path d="M0 5C0 2.23858 2.23858 0 5 0H43C45.7614 0 48 2.23858 48 5V43C48 45.7614 45.7614 48 43 48H5C2.23858 48 0 45.7614 0 43V5Z" fill="#192F3D"/>
<path d="M11.3421 13.796L15.1341 14.192V32H11.7741L11.5821 30.596C11.2301 31.092 10.7621 31.52 10.1781 31.88C9.59406 32.232 8.88606 32.408 8.05406 32.408C6.99806 32.408 6.12206 32.124 5.42606 31.556C4.73806 30.988 4.22206 30.196 3.87806 29.18C3.54206 28.156 3.37406 26.96 3.37406 25.592C3.37406 24.28 3.57806 23.116 3.98606 22.1C4.39406 21.084 4.97806 20.288 5.73806 19.712C6.49806 19.128 7.40206 18.836 8.45006 18.836C9.01806 18.836 9.54606 18.936 10.0341 19.136C10.5221 19.336 10.9581 19.628 11.3421 20.012V13.796ZM9.47006 21.608C8.81406 21.608 8.28606 21.92 7.88606 22.544C7.48606 23.16 7.28606 24.184 7.28606 25.616C7.28606 26.664 7.37006 27.48 7.53806 28.064C7.70606 28.64 7.93806 29.044 8.23406 29.276C8.53006 29.508 8.87006 29.624 9.25406 29.624C9.67806 29.624 10.0621 29.492 10.4061 29.228C10.7581 28.964 11.0701 28.604 11.3421 28.148V22.652C11.0781 22.324 10.7981 22.068 10.5021 21.884C10.2061 21.7 9.86206 21.608 9.47006 21.608Z" fill="#EFEFEF"/>
<path d="M23.0567 23.6C23.0567 24.592 23.1327 25.508 23.2847 26.348C23.4367 27.18 23.6887 27.988 24.0407 28.772C24.3927 29.556 24.8607 30.356 25.4447 31.172C26.0287 31.98 26.7527 32.852 27.6167 33.788L25.4087 35.78C24.1447 34.692 23.0487 33.544 22.1207 32.336C21.1927 31.128 20.4767 29.808 19.9727 28.376C19.4687 26.944 19.2167 25.352 19.2167 23.6C19.2167 21.848 19.4687 20.256 19.9727 18.824C20.4767 17.392 21.1927 16.072 22.1207 14.864C23.0487 13.656 24.1447 12.508 25.4087 11.42L27.6167 13.412C26.8087 14.292 26.1167 15.136 25.5407 15.944C24.9647 16.744 24.4927 17.544 24.1247 18.344C23.7567 19.144 23.4847 19.972 23.3087 20.828C23.1407 21.684 23.0567 22.608 23.0567 23.6Z" fill="#EFEFEF"/>
<path d="M39.3433 23.6C39.3433 22.608 39.2553 21.684 39.0793 20.828C38.9113 19.972 38.6433 19.144 38.2753 18.344C37.9073 17.544 37.4353 16.744 36.8593 15.944C36.2833 15.136 35.5913 14.292 34.7833 13.412L36.9913 11.42C38.2553 12.508 39.3513 13.656 40.2793 14.864C41.2073 16.072 41.9233 17.392 42.4273 18.824C42.9313 20.256 43.1833 21.848 43.1833 23.6C43.1833 25.352 42.9313 26.944 42.4273 28.376C41.9233 29.808 41.2073 31.128 40.2793 32.336C39.3513 33.544 38.2553 34.692 36.9913 35.78L34.7833 33.788C35.6473 32.852 36.3713 31.98 36.9553 31.172C37.5393 30.356 38.0073 29.556 38.3593 28.772C38.7113 27.988 38.9633 27.18 39.1153 26.348C39.2673 25.508 39.3433 24.592 39.3433 23.6Z" fill="#EFEFEF"/>
</svg>
