<svg width="75" height="75" viewBox="0 0 75 75" fill="none" xmlns="http://www.w3.org/2000/svg">
<path d="M37 37.5C37 32.253 41.253 28 46.5 28C51.747 28 56 32.253 56 37.5C56 42.747 51.747 47 46.5 47C41.253 47 37 42.747 37 37.5Z" fill="#1ABCFE"/>
<path d="M18 56.5C18 51.253 22.253 47 27.5 47H37V56.5C37 61.747 32.747 66 27.5 66C22.253 66 18 61.747 18 56.5Z" fill="#0ACF83"/>
<path d="M37 9V28H46.5C51.747 28 56 23.747 56 18.5C56 13.253 51.747 9 46.5 9H37Z" fill="#FF7262"/>
<path d="M18 18.5C18 23.747 22.253 28 27.5 28H37V9H27.5C22.253 9 18 13.253 18 18.5Z" fill="#F24E1E"/>
<path d="M18 37.5C18 42.747 22.253 47 27.5 47H37V28H27.5C22.253 28 18 32.253 18 37.5Z" fill="#A259FF"/>
</svg>
