<svg width="75" height="75" viewBox="0 0 75 75" fill="none" xmlns="http://www.w3.org/2000/svg">
<path d="M59.5 10H15.5C12.125 10 9.5 12.75 9.5 16V60C9.5 63.375 12.125 66 15.5 66H59.5C62.75 66 65.5 63.375 65.5 60V16C65.5 12.75 62.75 10 59.5 10ZM44.125 58C43 58.25 42.625 57.5 42.625 57C42.625 56.375 42.75 52.875 42.75 50.125C42.75 48.125 42 46.875 41.25 46.25C45.875 45.75 50.75 45.125 50.75 37.125C50.75 34.875 50 33.75 48.625 32.25C48.875 31.75 49.625 29.5 48.375 26.625C46.75 26.125 42.75 28.875 42.75 28.875C41.125 28.375 39.25 28.125 37.5 28.125C35.75 28.125 34 28.375 32.375 28.875C32.375 28.875 28.375 26.125 26.625 26.625C25.5 29.5 26.125 31.75 26.375 32.25C25.125 33.75 24.5 34.875 24.5 37.125C24.5 45.125 29.125 45.75 33.75 46.25C33.125 46.75 32.625 47.75 32.375 49C31.25 49.625 28.125 50.5 26.375 47.375C25.25 45.375 23.125 45.125 23.125 45.125C21.125 45.125 23 46.5 23 46.5C24.375 47.125 25.375 49.5 25.375 49.5C26.5 53.25 32.375 52 32.375 52C32.375 53.625 32.375 56.5 32.375 57C32.375 57.5 32 58.25 31 58C22.75 55.25 16.875 47.375 16.875 38.25C16.875 26.75 25.75 18 37.125 18C48.625 18 58 26.75 58 38.25C58 47.375 52.375 55.25 44.125 58ZM31.875 50.375C32.125 50.375 32.25 50.125 32.25 50C32.25 49.875 32 49.75 31.75 49.75C31.5 49.875 31.375 50 31.375 50.125C31.375 50.375 31.625 50.375 31.875 50.375ZM30.625 50.25C30.625 50.375 30.5 50.625 30.25 50.625C30 50.625 29.75 50.5 29.75 50.25C29.75 50.125 30 50 30.25 50C30.375 50 30.625 50.125 30.625 50.25ZM29 50.125C29 50 28.875 49.75 28.625 49.75C28.375 49.625 28.125 49.75 28.125 49.875C28 50 28.25 50.25 28.375 50.25C28.625 50.375 28.875 50.25 29 50.125ZM27.375 49.5C27.25 49.625 27 49.625 26.875 49.375C26.625 49.25 26.625 49 26.75 48.875C26.875 48.75 27.125 48.75 27.25 49C27.5 49.125 27.5 49.375 27.375 49.5ZM26.25 48.375C26.125 48.375 26 48.375 25.75 48.125C25.625 48 25.625 47.75 25.75 47.625C26 47.5 26.125 47.625 26.25 47.75C26.375 48 26.375 48.25 26.25 48.375ZM25.5 47.125C25.375 47.25 25.125 47.125 25 47C24.875 46.875 24.875 46.625 25 46.625C25.125 46.5 25.25 46.5 25.375 46.625C25.5 46.875 25.625 47 25.5 47.125ZM24.625 46.125C24.625 46.25 24.375 46.375 24.25 46.25C24.125 46.125 24 46 24.125 45.875C24.125 45.875 24.25 45.75 24.375 45.875C24.625 46 24.625 46.125 24.625 46.125Z" fill="white"/>
</svg>
