<?xml version="1.0" encoding="UTF-8" standalone="no"?>
<!-- Created with Inkscape (http://www.inkscape.org/) -->

<svg
   width="75"
   height="75"
   viewBox="0 0 19.84375 19.843751"
   version="1.1"
   id="svg5"
   inkscape:version="1.1.1 (3bf5ae0d25, 2021-09-20)"
   sodipodi:docname="graphql.svg"
   xmlns:inkscape="http://www.inkscape.org/namespaces/inkscape"
   xmlns:sodipodi="http://sodipodi.sourceforge.net/DTD/sodipodi-0.dtd"
   xmlns="http://www.w3.org/2000/svg"
   xmlns:svg="http://www.w3.org/2000/svg">
  <sodipodi:namedview
     id="namedview7"
     pagecolor="#505050"
     bordercolor="#ffffff"
     borderopacity="1"
     inkscape:pageshadow="0"
     inkscape:pageopacity="0"
     inkscape:pagecheckerboard="1"
     inkscape:document-units="mm"
     showgrid="false"
     units="px"
     inkscape:zoom="1.0074671"
     inkscape:cx="136.97718"
     inkscape:cy="174.19924"
     inkscape:window-width="1920"
     inkscape:window-height="1001"
     inkscape:window-x="-9"
     inkscape:window-y="-9"
     inkscape:window-maximized="1"
     inkscape:current-layer="layer1" />
  <defs
     id="defs2" />
  <g
     inkscape:label="Layer 1"
     inkscape:groupmode="layer"
     id="layer1">
    <g
       id="g913"
       transform="matrix(0.26458333,0,0,0.26458333,-70.866669,137.83557)">
	
	
	
	
	
	
	
	
	
	
	
	
	
	
	<g
   id="g987"
   transform="matrix(0.14044944,0,0,0.14044944,276.22738,-511.54322)">
  <g
     id="g851">
		<g
   id="g849">
			
				<rect
   x="122"
   y="-0.40000001"
   transform="matrix(-0.866,-0.5,0.5,-0.866,163.3196,363.3136)"
   fill="#e535ab"
   width="16.6"
   height="320.29999"
   id="rect847" />

		</g>

	</g>
  <g
     id="g857">
		<g
   id="g855">
			<rect
   x="39.799999"
   y="272.20001"
   fill="#e535ab"
   width="320.29999"
   height="16.6"
   id="rect853" />

		</g>

	</g>
  <g
     id="g863">
		<g
   id="g861">
			
				<rect
   x="37.900002"
   y="312.20001"
   transform="matrix(-0.866,-0.5,0.5,-0.866,83.0693,663.3409)"
   fill="#e535ab"
   width="185"
   height="16.6"
   id="rect859" />

		</g>

	</g>
  <g
     id="g869">
		<g
   id="g867">
			
				<rect
   x="177.10001"
   y="71.099998"
   transform="matrix(-0.866,-0.5,0.5,-0.866,463.3409,283.0693)"
   fill="#e535ab"
   width="185"
   height="16.6"
   id="rect865" />

		</g>

	</g>
  <g
     id="g875">
		<g
   id="g873">
			
				<rect
   x="122.1"
   y="-13"
   transform="matrix(-0.5,-0.866,0.866,-0.5,126.7903,232.1221)"
   fill="#e535ab"
   width="16.6"
   height="185"
   id="rect871" />

		</g>

	</g>
  <g
     id="g881">
		<g
   id="g879">
			
				<rect
   x="109.6"
   y="151.60001"
   transform="matrix(-0.5,-0.866,0.866,-0.5,266.0828,473.3766)"
   fill="#e535ab"
   width="320.29999"
   height="16.6"
   id="rect877" />

		</g>

	</g>
  <g
     id="g887">
		<g
   id="g885">
			<rect
   x="52.5"
   y="107.5"
   fill="#e535ab"
   width="16.6"
   height="185"
   id="rect883" />

		</g>

	</g>
  <g
     id="g893">
		<g
   id="g891">
			<rect
   x="330.89999"
   y="107.5"
   fill="#e535ab"
   width="16.6"
   height="185"
   id="rect889" />

		</g>

	</g>
  <g
     id="g899">
		<g
   id="g897">
			
				<rect
   x="262.39999"
   y="240.10001"
   transform="matrix(-0.5,-0.866,0.866,-0.5,126.7953,714.2875)"
   fill="#e535ab"
   width="14.5"
   height="160.89999"
   id="rect895" />

		</g>

	</g>
  <path
     fill="#e535ab"
     d="m 369.5,297.9 c -9.6,16.7 -31,22.4 -47.7,12.8 -16.7,-9.6 -22.4,-31 -12.8,-47.7 9.6,-16.7 31,-22.4 47.7,-12.8 16.8,9.7 22.5,31 12.8,47.7"
     id="path901" />
  <path
     fill="#e535ab"
     d="m 90.9,137 c -9.6,16.7 -31,22.4 -47.7,12.8 -16.7,-9.6 -22.4,-31 -12.8,-47.7 9.6,-16.7 31,-22.4 47.7,-12.8 16.7,9.7 22.4,31 12.8,47.7"
     id="path903" />
  <path
     fill="#e535ab"
     d="m 30.5,297.9 c -9.6,-16.7 -3.9,-38 12.8,-47.7 16.7,-9.6 38,-3.9 47.7,12.8 9.6,16.7 3.9,38 -12.8,47.7 -16.8,9.6 -38.1,3.9 -47.7,-12.8"
     id="path905" />
  <path
     fill="#e535ab"
     d="m 309.1,137 c -9.6,-16.7 -3.9,-38 12.8,-47.7 16.7,-9.6 38,-3.9 47.7,12.8 9.6,16.7 3.9,38 -12.8,47.7 -16.7,9.6 -38.1,3.9 -47.7,-12.8"
     id="path907" />
  <path
     fill="#e535ab"
     d="m 200,395.8 c -19.3,0 -34.9,-15.6 -34.9,-34.9 0,-19.3 15.6,-34.9 34.9,-34.9 19.3,0 34.9,15.6 34.9,34.9 0,19.2 -15.6,34.9 -34.9,34.9"
     id="path909" />
  <path
     fill="#e535ab"
     d="m 200,74 c -19.3,0 -34.9,-15.6 -34.9,-34.9 0,-19.3 15.6,-34.9 34.9,-34.9 19.3,0 34.9,15.6 34.9,34.9 0,19.3 -15.6,34.9 -34.9,34.9"
     id="path911" />
</g>

</g>
  </g>
</svg>
