<svg width="48" height="48" viewBox="0 0 48 48" fill="none" xmlns="http://www.w3.org/2000/svg">
<path d="M24 13.2188C18 13.2188 13.2188 18.0938 13.2188 24C13.2188 30 18 34.7812 24 34.7812C29.9062 34.7812 34.7812 30 34.7812 24C34.7812 18.0938 29.9062 13.2188 24 13.2188ZM24 31.0312C20.1562 31.0312 16.9688 27.9375 16.9688 24C16.9688 20.1562 20.0625 17.0625 24 17.0625C27.8438 17.0625 30.9375 20.1562 30.9375 24C30.9375 27.9375 27.8438 31.0312 24 31.0312ZM37.6875 12.8438C37.6875 11.4375 36.5625 10.3125 35.1562 10.3125C33.75 10.3125 32.625 11.4375 32.625 12.8438C32.625 14.25 33.75 15.375 35.1562 15.375C36.5625 15.375 37.6875 14.25 37.6875 12.8438ZM44.8125 15.375C44.625 12 43.875 9 41.4375 6.5625C39 4.125 36 3.375 32.625 3.1875C29.1562 3 18.75 3 15.2812 3.1875C11.9062 3.375 9 4.125 6.46875 6.5625C4.03125 9 3.28125 12 3.09375 15.375C2.90625 18.8438 2.90625 29.25 3.09375 32.7188C3.28125 36.0938 4.03125 39 6.46875 41.5312C9 43.9688 11.9062 44.7188 15.2812 44.9062C18.75 45.0938 29.1562 45.0938 32.625 44.9062C36 44.7188 39 43.9688 41.4375 41.5312C43.875 39 44.625 36.0938 44.8125 32.7188C45 29.25 45 18.8438 44.8125 15.375ZM40.3125 36.375C39.6562 38.25 38.1562 39.6562 36.375 40.4062C33.5625 41.5312 27 41.25 24 41.25C20.9062 41.25 14.3438 41.5312 11.625 40.4062C9.75 39.6562 8.34375 38.25 7.59375 36.375C6.46875 33.6562 6.75 27.0938 6.75 24C6.75 21 6.46875 14.4375 7.59375 11.625C8.34375 9.84375 9.75 8.4375 11.625 7.6875C14.3438 6.5625 20.9062 6.84375 24 6.84375C27 6.84375 33.5625 6.5625 36.375 7.6875C38.1562 8.34375 39.5625 9.84375 40.3125 11.625C41.4375 14.4375 41.1562 21 41.1562 24C41.1562 27.0938 41.4375 33.6562 40.3125 36.375Z" fill="#EFEFEF"/>
</svg>
