<svg width="75" height="75" viewBox="0 0 75 75" fill="none" xmlns="http://www.w3.org/2000/svg">
<path d="M58.8125 10.625H16.1875C12.918 10.625 10.375 13.2891 10.375 16.4375V59.0625C10.375 62.332 12.918 64.875 16.1875 64.875H58.8125C61.9609 64.875 64.625 62.332 64.625 59.0625V16.4375C64.625 13.2891 61.9609 10.625 58.8125 10.625ZM39.8008 53.0078C39.8008 58.2148 36.7734 60.6367 32.1719 60.6367C28.1758 60.6367 25.7539 58.5781 24.543 56.0352L28.7812 53.4922C29.5078 54.9453 30.2344 56.1562 32.0508 56.1562C33.625 56.1562 34.7148 55.4297 34.7148 52.8867V35.5703H39.8008V53.0078ZM51.9102 60.6367C47.1875 60.6367 44.1602 58.457 42.5859 55.4297L46.8242 53.1289C47.9141 54.8242 49.2461 56.1562 51.7891 56.1562C53.8477 56.1562 55.3008 55.0664 55.3008 53.6133C55.3008 51.918 53.8477 51.3125 51.5469 50.2227L50.2148 49.7383C46.582 48.1641 44.1602 46.2266 44.1602 41.9883C44.1602 38.2344 47.0664 35.3281 51.668 35.3281C54.8164 35.3281 57.2383 36.418 58.8125 39.3242L54.9375 41.8672C53.9688 40.4141 53.1211 39.6875 51.5469 39.6875C50.0938 39.6875 49.125 40.6562 49.125 41.8672C49.125 43.4414 50.0938 44.0469 52.2734 45.0156L53.6055 45.6211C57.9648 47.4375 60.3867 49.375 60.3867 53.6133C60.3867 58.2148 56.7539 60.6367 51.9102 60.6367Z" fill="#E3BD23"/>
</svg>
