<svg width="75" height="75" viewBox="0 0 75 75" fill="none" xmlns="http://www.w3.org/2000/svg">
<path d="M61.5 10H13.375C11.25 10 9.5 11.875 9.5 14.125V62C9.5 64.25 11.25 66 13.375 66H61.5C63.625 66 65.5 64.25 65.5 62V14.125C65.5 11.875 63.625 10 61.5 10ZM26.375 58H18.125V31.375H26.375V58ZM22.25 27.625C19.5 27.625 17.375 25.5 17.375 22.875C17.375 20.25 19.5 18 22.25 18C24.875 18 27 20.25 27 22.875C27 25.5 24.875 27.625 22.25 27.625ZM57.5 58H49.125V45C49.125 42 49.125 38 44.875 38C40.5 38 39.875 41.375 39.875 44.875V58H31.625V31.375H39.5V35H39.625C40.75 32.875 43.5 30.625 47.5 30.625C55.875 30.625 57.5 36.25 57.5 43.375V58Z" fill="#EFEFEF"/>
</svg>
