<svg width="75" height="75" viewBox="0 0 75 75" fill="none" xmlns="http://www.w3.org/2000/svg">
<path d="M57.1172 28.3047C56.3906 28.0625 55.7852 27.8203 55.1797 27.6992C55.1797 27.2148 55.3008 26.7305 55.4219 26.2461C56.875 19.1016 55.9062 13.2891 52.6367 11.3516C49.4883 9.53516 44.2812 11.4727 38.9531 16.0742C38.4688 16.4375 37.9844 16.9219 37.5 17.4062C37.1367 17.043 36.7734 16.8008 36.5312 16.4375C30.9609 11.5938 25.3906 9.53516 22.1211 11.4727C18.9727 13.2891 18.0039 18.7383 19.3359 25.6406C19.457 26.2461 19.5781 26.9727 19.8203 27.5781C18.9727 27.8203 18.2461 28.0625 17.5195 28.3047C11.1016 30.6055 6.5 34.1172 6.5 37.75C6.5 41.5039 11.3438 45.3789 18.125 47.6797C18.6094 47.8008 19.2148 48.043 19.6992 48.1641C19.5781 48.8906 19.457 49.6172 19.2148 50.3438C18.0039 57.0039 18.9727 62.332 22.1211 64.1484C25.3906 66.0859 30.9609 64.1484 36.2891 59.4258C36.6523 59.0625 37.1367 58.6992 37.5 58.3359C38.1055 58.8203 38.5898 59.3047 39.1953 59.7891C44.4023 64.2695 49.4883 66.0859 52.6367 64.2695C55.9062 62.332 56.9961 56.6406 55.6641 49.6172C55.543 49.1328 55.4219 48.5273 55.3008 48.043C55.6641 47.9219 56.0273 47.8008 56.3906 47.6797C63.4141 45.3789 68.5 41.625 68.5 37.75C68.5 34.1172 63.6562 30.4844 57.1172 28.3047ZM40.6484 18.0117C45.25 14.0156 49.3672 12.5625 51.3047 13.6523C53.3633 14.7422 54.2109 19.5859 52.8789 25.7617C52.7578 26.2461 52.7578 26.6094 52.6367 26.9727C49.8516 26.3672 47.1875 26.0039 44.4023 25.7617C42.8281 23.4609 41.1328 21.2812 39.3164 19.2227C39.8008 18.8594 40.1641 18.375 40.6484 18.0117ZM26.7227 44.0469C27.3281 45.1367 27.9336 46.1055 28.6602 47.1953C26.7227 46.9531 24.7852 46.7109 22.9688 46.2266C23.5742 44.5312 24.1797 42.7148 24.9062 40.8984C25.5117 41.9883 26.1172 42.957 26.7227 44.0469ZM22.9688 29.5156C24.7852 29.0312 26.6016 28.7891 28.5391 28.5469C27.9336 29.5156 27.3281 30.6055 26.7227 31.5742C26.1172 32.6641 25.5117 33.6328 24.9062 34.7227C24.1797 32.9062 23.5742 31.2109 22.9688 29.5156ZM26.3594 37.8711C27.0859 36.1758 28.0547 34.4805 28.9023 32.9062C29.8711 31.332 30.8398 29.7578 31.9297 28.1836C33.7461 28.0625 35.5625 27.9414 37.5 27.9414C39.3164 27.9414 41.2539 28.0625 42.9492 28.1836C44.0391 29.7578 45.0078 31.332 45.9766 32.9062C46.8242 34.4805 47.793 36.0547 48.5195 37.75C47.793 39.4453 46.9453 41.1406 45.9766 42.7148C45.0078 44.2891 44.0391 45.8633 43.0703 47.4375C41.2539 47.5586 39.3164 47.6797 37.5 47.6797C35.5625 47.6797 33.7461 47.5586 31.9297 47.4375C30.8398 45.8633 29.8711 44.2891 28.9023 42.7148C28.0547 41.1406 27.207 39.4453 26.3594 37.8711ZM48.1562 44.0469C48.8828 42.957 49.3672 41.8672 49.9727 40.7773C50.6992 42.5938 51.4258 44.2891 52.0312 46.1055C50.0938 46.5898 48.2773 46.9531 46.3398 47.0742C46.9453 46.1055 47.5508 45.0156 48.1562 44.0469ZM49.9727 34.7227C49.3672 33.6328 48.7617 32.6641 48.1562 31.5742C47.5508 30.6055 46.9453 29.5156 46.3398 28.5469C48.2773 28.7891 50.2148 29.1523 51.9102 29.5156C51.3047 31.332 50.6992 33.0273 49.9727 34.7227ZM37.5 21.1602C38.7109 22.4922 39.9219 23.9453 41.0117 25.5195C38.7109 25.3984 36.2891 25.3984 33.8672 25.5195C35.0781 23.9453 36.2891 22.4922 37.5 21.1602ZM23.4531 13.6523C25.5117 12.5625 29.9922 14.2578 34.7148 18.375C35.0781 18.7383 35.3203 18.9805 35.6836 19.2227C33.7461 21.2812 32.0508 23.4609 30.4766 25.7617C27.6914 26.0039 25.0273 26.3672 22.3633 26.9727C22.1211 26.3672 22 25.7617 21.8789 25.0352C20.7891 19.2227 21.5156 14.8633 23.4531 13.6523ZM20.4258 45.6211C19.9414 45.5 19.457 45.3789 18.9727 45.1367C16.4297 44.2891 13.4023 43.0781 11.3438 41.3828C10.1328 40.5352 9.28516 39.2031 9.04297 37.75C9.04297 35.5703 12.918 32.6641 18.3672 30.7266C19.0938 30.4844 19.8203 30.3633 20.5469 30.1211C21.2734 32.7852 22.3633 35.3281 23.4531 37.8711C22.2422 40.293 21.2734 42.957 20.4258 45.6211ZM34.5938 57.4883C32.5352 59.3047 30.2344 60.7578 27.6914 61.7266C26.3594 62.4531 24.9062 62.4531 23.4531 61.9688C21.5156 60.7578 20.7891 56.5195 21.8789 50.8281C22 50.1016 22.1211 49.375 22.2422 48.7695C25.0273 49.375 27.6914 49.7383 30.4766 49.9805C32.0508 52.1602 33.8672 54.3398 35.6836 56.3984C35.3203 56.7617 34.957 57.125 34.5938 57.4883ZM37.5 54.582C36.2891 53.25 35.0781 51.7969 33.8672 50.1016C35.0781 50.2227 36.2891 50.2227 37.5 50.2227C38.7109 50.2227 39.9219 50.2227 41.1328 50.1016C40.043 51.6758 38.832 53.1289 37.5 54.582ZM53.3633 58.2148C53.2422 59.668 52.5156 61 51.4258 61.9688C49.4883 63.0586 45.3711 61.6055 40.8906 57.8516C40.4062 57.3672 39.9219 56.8828 39.3164 56.3984C41.2539 54.3398 42.9492 52.2812 44.5234 49.9805C47.3086 49.7383 49.9727 49.2539 52.7578 48.6484C52.8789 49.1328 53 49.6172 53.1211 50.1016C53.6055 52.7656 53.7266 55.5508 53.3633 58.2148ZM55.543 45.1367C55.1797 45.2578 54.9375 45.3789 54.5742 45.5C53.7266 42.8359 52.6367 40.293 51.4258 37.75C52.6367 35.3281 53.6055 32.7852 54.4531 30.1211C55.0586 30.3633 55.6641 30.4844 56.2695 30.7266C61.8398 32.6641 65.8359 35.5703 65.8359 37.75C65.8359 40.0508 61.5977 43.1992 55.543 45.1367ZM37.5 43.3203C40.5273 43.3203 42.9492 40.8984 42.9492 37.75C42.9492 34.7227 40.5273 32.3008 37.5 32.3008C34.3516 32.3008 31.9297 34.7227 31.9297 37.75C31.9297 40.8984 34.3516 43.3203 37.5 43.3203Z" fill="#61DAFB"/>
</svg>
