<svg width="75" height="75" viewBox="0 0 75 75" fill="none" xmlns="http://www.w3.org/2000/svg">
<path d="M35.5703 49.9922C35.5703 50.0938 35.5703 50.0938 35.5703 49.9922V49.9922ZM60.8594 41.1562C58.8281 41.1562 56.7969 41.6641 54.9688 42.5781C54.4609 41.3594 53.75 40.3438 53.6484 39.5312C53.5469 38.6172 53.4453 38.0078 53.5469 36.9922C53.75 35.875 54.3594 34.25 54.3594 34.1484C54.3594 34.0469 54.2578 33.5391 52.9375 33.5391C51.6172 33.5391 50.5 33.7422 50.2969 34.1484C50.0938 34.7578 49.8906 35.3672 49.7891 36.0781C49.5859 37.1953 47.1484 41.4609 45.8281 43.6953C45.4219 42.7812 45.0156 42.0703 44.9141 41.4609C44.8125 40.5469 44.7109 39.9375 44.8125 38.9219C44.9141 37.8047 45.625 36.2812 45.625 36.0781C45.5234 35.9766 45.4219 35.4688 44.1016 35.4688C42.7812 35.4688 41.6641 35.6719 41.5625 36.0781C41.4609 36.3828 41.2578 37.1953 41.0547 38.0078C40.75 38.7188 37.6016 45.8281 36.7891 47.6562C36.2812 48.5703 35.9766 49.3828 35.6719 49.8906C35.6719 49.9922 35.6719 49.9922 35.5703 49.9922C35.6719 49.9922 35.6719 49.8906 35.6719 49.9922C35.4688 50.3984 35.2656 50.6016 35.2656 50.6016C35.1641 51.0078 34.9609 51.3125 34.8594 51.3125C34.7578 51.3125 34.6562 50.3984 34.8594 49.2812C35.3672 46.7422 36.4844 42.9844 36.4844 42.8828C36.4844 42.7812 36.6875 42.0703 35.7734 41.7656C34.7578 41.4609 34.4531 41.9688 34.3516 41.9688L34.25 42.1719C34.25 42.1719 35.2656 37.9062 32.3203 37.9062C30.3906 37.9062 27.8516 39.9375 26.5312 41.7656C25.7188 42.1719 23.9922 43.1875 22.1641 44.2031C21.4531 44.5078 20.7422 44.9141 20.0312 45.3203L19.9297 45.2188C16.2734 41.2578 9.57031 38.5156 9.875 33.3359C9.97656 31.4062 10.5859 26.4297 22.7734 20.4375C32.7266 15.4609 40.6484 16.7812 42.0703 19.8281C44 24.1953 37.8047 32.2188 27.4453 33.3359C23.4844 33.7422 21.4531 32.2188 20.9453 31.7109C20.3359 31.1016 20.3359 31.1016 20.1328 31.2031C19.7266 31.3047 19.9297 31.9141 20.1328 32.2188C20.4375 33.0312 21.6562 34.4531 23.7891 35.1641C25.7188 35.7734 30.3906 36.0781 35.9766 33.9453C42.1719 31.5078 47.0469 24.8047 45.625 19.1172C44.2031 13.4297 34.7578 11.5 25.7188 14.75C20.3359 16.5781 14.5469 19.625 10.3828 23.4844C5.50781 28.1562 4.69531 32.1172 5 33.8438C6.21875 39.8359 14.4453 43.6953 17.6953 46.6406C17.5938 46.7422 17.3906 46.7422 17.2891 46.8438C15.5625 47.6562 9.36719 51.0078 7.74219 54.4609C6.01562 58.4219 8.04688 61.2656 9.36719 61.5703C13.6328 62.7891 18 60.6562 20.3359 57.2031C22.6719 53.6484 22.3672 49.1797 21.25 47.0469C21.25 47.0469 21.25 47.0469 21.25 46.9453C21.6562 46.7422 22.1641 46.4375 22.5703 46.2344C23.3828 45.7266 24.1953 45.3203 24.9062 44.9141C24.5 45.9297 24.1953 47.25 24.0938 49.1797C23.8906 51.4141 24.8047 54.3594 26.0234 55.4766C26.5312 55.9844 27.2422 55.9844 27.5469 55.9844C28.9688 55.9844 29.5781 54.8672 30.2891 53.4453C31.2031 51.7188 31.9141 49.7891 31.9141 49.7891C31.9141 49.7891 31 55.0703 33.6406 55.0703C34.5547 55.0703 35.4688 53.8516 35.9766 53.2422C35.9766 53.2422 35.9766 53.2422 35.9766 53.1406C36.0781 52.9375 36.1797 52.8359 36.1797 52.8359C36.5859 52.2266 37.3984 50.7031 38.6172 48.1641C40.3438 44.9141 41.8672 40.9531 41.8672 40.9531C42.0703 41.7656 42.2734 42.6797 42.4766 43.4922C42.7812 44.5078 43.3906 45.5234 43.8984 46.5391C43.4922 47.1484 43.2891 47.4531 43.2891 47.4531C42.9844 47.8594 42.5781 48.2656 42.2734 48.6719C40.9531 50.2969 39.4297 52.0234 39.2266 52.5312C38.9219 53.1406 39.0234 53.5469 39.5312 53.9531C39.8359 54.1562 40.4453 54.2578 41.0547 54.1562C42.2734 54.0547 43.0859 53.8516 43.4922 53.6484C44.2031 53.3438 44.9141 53.0391 45.5234 52.5312C46.8438 51.6172 47.5547 50.2969 47.4531 48.4688C47.4531 47.5547 47.1484 46.5391 46.7422 45.625C46.8438 45.5234 46.9453 45.3203 47.1484 45.1172C49.0781 42.1719 50.7031 38.9219 50.7031 38.9219C50.8047 39.8359 51.0078 40.75 51.3125 41.5625C51.5156 42.375 52.0234 43.2891 52.4297 44.2031C50.6016 45.7266 49.3828 47.5547 48.9766 48.6719C48.2656 50.8047 48.875 51.8203 49.8906 52.0234C50.3984 52.125 51.1094 51.9219 51.7188 51.7188C52.4297 51.4141 53.2422 51.0078 53.8516 50.6016C55.1719 49.5859 56.3906 48.2656 56.2891 46.5391C56.2891 45.7266 55.9844 44.9141 55.6797 44.2031C57.3047 43.4922 59.4375 43.0859 62.0781 43.3906C67.6641 44.1016 68.7812 47.6562 68.5781 49.0781C68.375 50.6016 67.1562 51.4141 66.75 51.6172C66.3438 51.9219 66.2422 51.9219 66.3438 52.125C66.3438 52.4297 66.5469 52.4297 66.8516 52.3281C67.3594 52.2266 69.7969 51.1094 69.8984 48.3672C70.1016 44.9141 66.75 41.1562 60.8594 41.1562ZM17.2891 55.8828C15.4609 57.9141 12.8203 58.7266 11.7031 58.0156C10.4844 57.3047 10.9922 54.3594 13.3281 52.125C14.6484 50.8047 16.4766 49.5859 17.6953 48.875C18 48.6719 18.3047 48.4688 18.8125 48.1641C18.9141 48.1641 18.9141 48.0625 18.9141 48.0625C19.0156 48.0625 19.1172 47.9609 19.2188 47.9609C20.1328 51.0078 19.3203 53.75 17.2891 55.8828ZM31 46.6406C30.2891 48.1641 28.9688 52.2266 28.1562 52.0234C27.4453 51.9219 26.9375 48.7734 27.9531 45.7266C28.4609 44.2031 29.5781 42.375 30.1875 41.6641C31.2031 40.5469 32.3203 40.1406 32.625 40.6484C32.9297 41.1562 31.4062 45.625 31 46.6406ZM42.2734 52.0234C41.9688 52.125 41.6641 52.2266 41.5625 52.125C41.4609 52.125 41.6641 51.9219 41.6641 51.9219C41.6641 51.9219 43.0859 50.3984 43.6953 49.6875C44 49.2812 44.4062 48.875 44.8125 48.2656C44.8125 48.3672 44.8125 48.3672 44.8125 48.4688C44.8125 50.2969 42.9844 51.5156 42.2734 52.0234ZM50.9062 49.9922C50.7031 49.8906 50.8047 49.3828 51.4141 47.9609C51.7188 47.3516 52.3281 46.3359 53.3438 45.4219C53.4453 45.7266 53.5469 46.1328 53.5469 46.5391C53.5469 48.7734 51.9219 49.6875 50.9062 49.9922Z" fill="#CF649A"/>
</svg>
