<?xml version="1.0" encoding="UTF-8" standalone="no"?>
<!-- Created with Inkscape (http://www.inkscape.org/) -->

<svg
   width="75"
   height="75"
   viewBox="0 0 19.84375 19.843751"
   version="1.1"
   id="svg5"
   inkscape:version="1.1.1 (3bf5ae0d25, 2021-09-20)"
   sodipodi:docname="ts.svg"
   xmlns:inkscape="http://www.inkscape.org/namespaces/inkscape"
   xmlns:sodipodi="http://sodipodi.sourceforge.net/DTD/sodipodi-0.dtd"
   xmlns="http://www.w3.org/2000/svg"
   xmlns:svg="http://www.w3.org/2000/svg">
  <sodipodi:namedview
     id="namedview7"
     pagecolor="#505050"
     bordercolor="#ffffff"
     borderopacity="1"
     inkscape:pageshadow="0"
     inkscape:pageopacity="0"
     inkscape:pagecheckerboard="1"
     inkscape:document-units="mm"
     showgrid="false"
     units="px"
     inkscape:zoom="1.0074671"
     inkscape:cx="136.97718"
     inkscape:cy="257.57666"
     inkscape:window-width="1920"
     inkscape:window-height="1001"
     inkscape:window-x="-9"
     inkscape:window-y="-9"
     inkscape:window-maximized="1"
     inkscape:current-layer="layer1" />
  <defs
     id="defs2" />
  <g
     inkscape:label="Layer 1"
     inkscape:groupmode="layer"
     id="layer1">
    <g
       style="fill:none"
       id="g838"
       transform="matrix(0.02842204,0,0,0.02842204,2.6458333,2.6458333)">
      <rect
         width="512"
         height="512"
         rx="50"
         fill="#3178c6"
         id="rect826"
         x="0"
         y="0" />
      <path
         d="m 317,407 v 50 c 8.1,4.2 18,7.3 29,9.4 11,2.1 23,3.1 35,3.1 12,0 23,-1.1 34,-3.4 11,-2.3 20,-6.1 28,-11 8.1,-5.3 15,-12 19,-21 4,-9 7.1,-19 7.1,-32 0,-9.1 -1.4,-17 -4.1,-24 -2.7,-7 -6.6,-13 -12,-18 -5.1,-5.3 -11,-10 -18,-14 -7,-4 -15,-8.2 -24,-12 -6.6,-2.7 -12,-5.3 -18,-7.9 -5.2,-2.6 -9.7,-5.2 -13,-7.8 -3.7,-2.7 -6.5,-5.5 -8.5,-8.4 -2,-3 -3,-6.3 -3,-10 0,-3.4 0.89,-6.5 2.7,-9.3 1.81,-2.8 4.3,-5.1 7.5,-7.1 3.2,-2 7.2,-3.5 12,-4.6 4.7,-1.1 9.9,-1.6 16,-1.6 4.2,0 8.6,0.31 13,0.94 4.6,0.63 9.3,1.6 14,2.9 4.7,1.3 9.3,2.9 14,4.9 4.4,2 8.5,4.3 12,6.9 v -47 c -7.6,-2.9 -16,-5.1 -25,-6.5 -9,-1.4 -19,-2.1 -31,-2.1 -12,0 -23,1.3 -34,3.8 -11,2.5 -20,6.5 -28,12 -8.1,5.4 -14,12 -19,21 -4.7,8.4 -7,18 -7,30 0,15 4.3,28 13,38 8.6,11 22,19 39,27 6.9,2.8 13,5.6 19,8.3 6,2.7 11,5.5 15,8.4 4.3,2.9 7.7,6.1 10,9.5 2.5,3.4 3.8,7.4 3.8,12 0,3.2 -0.78,6.2 -2.3,9 -1.52,2.8 -3.9,5.2 -7.1,7.2 -3.2,2 -7.1,3.6 -12,4.8 -4.7,1.1 -10,1.7 -17,1.7 -11,0 -22,-1.9 -32,-5.7 -11,-3.8 -21,-9.5 -30,-17 z M 233,284 h 64 V 243 H 118 v 41 h 64 v 183 h 51 z"
         clip-rule="evenodd"
         fill="#fff"
         fill-rule="evenodd"
         style="fill:#ffffff"
         id="path828" />
    </g>
  </g>
</svg>
